<mxfile host="app.diagrams.net" agent="Mozilla/5.0 (X11; Linux x86_64) AppleWebKit/537.36 (KHTML, like Gecko) Chrome/137.0.0.0 Safari/537.36" version="28.1.2">
  <diagram name="Page-1" id="dd472eb7-4b8b-5cd9-a60b-b15522922e76">
    <mxGraphModel grid="1" page="1" gridSize="10" guides="1" tooltips="1" connect="1" arrows="1" fold="1" pageScale="1" pageWidth="1100" pageHeight="850" background="none" math="0" shadow="0">
      <root>
        <mxCell id="0" />
        <mxCell id="1" parent="0" />
        <mxCell id="wtMiBTPdfHzcAF2MeM23-12" value="" style="endArrow=classic;html=1;rounded=0;exitX=1;exitY=1;exitDx=0;exitDy=0;entryX=0.207;entryY=0.097;entryDx=0;entryDy=0;entryPerimeter=0;" edge="1" parent="1" source="7p3zjBgwq1A4IZcTtpgZ-30" target="7p3zjBgwq1A4IZcTtpgZ-27">
          <mxGeometry relative="1" as="geometry">
            <mxPoint x="199.98000000000047" y="-103.95000000000005" as="sourcePoint" />
            <mxPoint x="442.8800000000001" y="316" as="targetPoint" />
          </mxGeometry>
        </mxCell>
        <mxCell id="wtMiBTPdfHzcAF2MeM23-15" value="&lt;span style=&quot;text-wrap-mode: nowrap; background-color: rgb(255, 255, 255);&quot;&gt;&lt;font style=&quot;font-size: 14px;&quot;&gt;ثبت نام/ ورود /اطلاعات شخصی و بیمه /درخواست نوبت/پرداخت هزینه/ ارسال مدارک/&lt;/font&gt;&lt;/span&gt;&lt;div&gt;&lt;span style=&quot;text-wrap-mode: nowrap; background-color: rgb(255, 255, 255);&quot;&gt;&lt;font style=&quot;font-size: 14px;&quot;&gt;ارسال علائم /&amp;nbsp;&lt;/font&gt;&lt;/span&gt;&lt;span style=&quot;font-size: 14px; background-color: light-dark(rgb(255, 255, 255), rgb(18, 18, 18)); text-wrap-mode: nowrap; color: light-dark(rgb(0, 0, 0), rgb(255, 255, 255));&quot;&gt;انجام نظرسنجی&lt;/span&gt;&lt;/div&gt;" style="text;html=1;align=center;verticalAlign=middle;whiteSpace=wrap;rounded=0;rotation=45;" vertex="1" parent="1">
          <mxGeometry x="310" y="24.71" width="20" height="205" as="geometry" />
        </mxCell>
        <mxCell id="wtMiBTPdfHzcAF2MeM23-17" value="" style="endArrow=classic;html=1;rounded=0;entryX=0.888;entryY=1.048;entryDx=0;entryDy=0;entryPerimeter=0;exitX=0;exitY=0;exitDx=0;exitDy=0;" edge="1" parent="1" source="7p3zjBgwq1A4IZcTtpgZ-27" target="7p3zjBgwq1A4IZcTtpgZ-30">
          <mxGeometry width="50" height="50" relative="1" as="geometry">
            <mxPoint x="427.9200000000005" y="316" as="sourcePoint" />
            <mxPoint x="185.92000000000007" y="-97.04999999999995" as="targetPoint" />
          </mxGeometry>
        </mxCell>
        <mxCell id="wtMiBTPdfHzcAF2MeM23-18" value="&lt;font style=&quot;font-size: 14px;&quot;&gt;تاییدنوبت / نسخه پزشک/ نتیجه آزمایش / وضعیت سفارش دارو / تایید پرداخت&lt;/font&gt;" style="text;html=1;align=center;verticalAlign=middle;whiteSpace=wrap;rounded=0;rotation=45;" vertex="1" parent="1">
          <mxGeometry x="-19.999999999999996" y="170" width="537.25" height="50" as="geometry" />
        </mxCell>
        <mxCell id="wtMiBTPdfHzcAF2MeM23-19" value="" style="endArrow=classic;html=1;rounded=0;exitX=0.5;exitY=1;exitDx=0;exitDy=0;entryX=0.53;entryY=0.002;entryDx=0;entryDy=0;entryPerimeter=0;" edge="1" parent="1" source="7p3zjBgwq1A4IZcTtpgZ-29" target="7p3zjBgwq1A4IZcTtpgZ-27">
          <mxGeometry width="50" height="50" relative="1" as="geometry">
            <mxPoint x="619.9500000000007" y="-137.74999999999977" as="sourcePoint" />
            <mxPoint x="630" y="339" as="targetPoint" />
          </mxGeometry>
        </mxCell>
        <mxCell id="wtMiBTPdfHzcAF2MeM23-20" value="" style="endArrow=classic;html=1;rounded=0;entryX=0.405;entryY=1.032;entryDx=0;entryDy=0;exitX=0.47;exitY=0.002;exitDx=0;exitDy=0;exitPerimeter=0;entryPerimeter=0;" edge="1" parent="1" source="7p3zjBgwq1A4IZcTtpgZ-27" target="7p3zjBgwq1A4IZcTtpgZ-29">
          <mxGeometry width="50" height="50" relative="1" as="geometry">
            <mxPoint x="609.6400000000003" y="316.875" as="sourcePoint" />
            <mxPoint x="600" y="-140" as="targetPoint" />
          </mxGeometry>
        </mxCell>
        <mxCell id="wtMiBTPdfHzcAF2MeM23-21" value="" style="endArrow=classic;html=1;rounded=0;entryX=0.5;entryY=1;entryDx=0;entryDy=0;" edge="1" parent="1" target="7p3zjBgwq1A4IZcTtpgZ-23">
          <mxGeometry width="50" height="50" relative="1" as="geometry">
            <mxPoint x="741" y="370" as="sourcePoint" />
            <mxPoint x="1065" y="-160" as="targetPoint" />
          </mxGeometry>
        </mxCell>
        <mxCell id="wtMiBTPdfHzcAF2MeM23-23" value="&lt;font style=&quot;font-size: 14px;&quot;&gt;اطلاعات پزشکان / امکانات درمانی / خدمات آزمایشگاهی&lt;/font&gt;" style="text;html=1;align=center;verticalAlign=middle;whiteSpace=wrap;rounded=0;rotation=90;" vertex="1" parent="1">
          <mxGeometry x="459" y="70" width="360" height="30" as="geometry" />
        </mxCell>
        <mxCell id="wtMiBTPdfHzcAF2MeM23-24" value="&lt;font style=&quot;font-size: 14px;&quot;&gt;نتایج آزمایش یا خدمات درمانی به بیمار یا پزشک&lt;/font&gt;" style="text;html=1;align=center;verticalAlign=middle;whiteSpace=wrap;rounded=0;rotation=90;" vertex="1" parent="1">
          <mxGeometry x="393" y="68" width="345.57" height="30" as="geometry" />
        </mxCell>
        <mxCell id="wtMiBTPdfHzcAF2MeM23-25" value="" style="endArrow=classic;html=1;rounded=0;exitX=0.339;exitY=0.998;exitDx=0;exitDy=0;exitPerimeter=0;entryX=0.79;entryY=0.095;entryDx=0;entryDy=0;entryPerimeter=0;" edge="1" parent="1" source="7p3zjBgwq1A4IZcTtpgZ-23" target="7p3zjBgwq1A4IZcTtpgZ-27">
          <mxGeometry width="50" height="50" relative="1" as="geometry">
            <mxPoint x="1051.13" y="-157.5999999999999" as="sourcePoint" />
            <mxPoint x="783.4400000000005" y="313.25" as="targetPoint" />
          </mxGeometry>
        </mxCell>
        <mxCell id="7p3zjBgwq1A4IZcTtpgZ-41" style="edgeStyle=orthogonalEdgeStyle;rounded=0;orthogonalLoop=1;jettySize=auto;html=1;exitX=0.25;exitY=0;exitDx=0;exitDy=0;" edge="1" parent="1" source="wtMiBTPdfHzcAF2MeM23-26">
          <mxGeometry relative="1" as="geometry">
            <mxPoint x="770" y="162.46153846153857" as="targetPoint" />
          </mxGeometry>
        </mxCell>
        <mxCell id="wtMiBTPdfHzcAF2MeM23-26" value="&lt;font style=&quot;font-size: 14px;&quot;&gt;ورود به سیستم/دریافت اطلاعات بیمار / ثبت تشخیص و نسخه / پاسخ به مشاوره ویدئویی&lt;/font&gt;" style="text;html=1;align=center;verticalAlign=middle;whiteSpace=wrap;rounded=0;rotation=-60;" vertex="1" parent="1">
          <mxGeometry x="652" y="70" width="390" height="30" as="geometry" />
        </mxCell>
        <mxCell id="wtMiBTPdfHzcAF2MeM23-29" value="&lt;font style=&quot;font-size: 14px;&quot;&gt;اطلاعات مشاوره /نوبت تایید شده/ نسخه دارویی / توصیه های پزشکی&lt;/font&gt;" style="text;html=1;align=center;verticalAlign=middle;whiteSpace=wrap;rounded=0;rotation=-60;" vertex="1" parent="1">
          <mxGeometry x="760" y="110" width="350" height="34.42" as="geometry" />
        </mxCell>
        <mxCell id="wtMiBTPdfHzcAF2MeM23-39" value="" style="endArrow=classic;html=1;rounded=0;exitX=0.947;exitY=0.275;exitDx=0;exitDy=0;entryX=0;entryY=0.5;entryDx=0;entryDy=0;exitPerimeter=0;" edge="1" parent="1" source="7p3zjBgwq1A4IZcTtpgZ-27" target="7p3zjBgwq1A4IZcTtpgZ-31">
          <mxGeometry width="50" height="50" relative="1" as="geometry">
            <mxPoint x="792.2" y="426.25" as="sourcePoint" />
            <mxPoint x="1302.1999999999837" y="285" as="targetPoint" />
          </mxGeometry>
        </mxCell>
        <mxCell id="wtMiBTPdfHzcAF2MeM23-40" value="" style="endArrow=classic;html=1;rounded=0;exitX=0;exitY=0.75;exitDx=0;exitDy=0;entryX=0.963;entryY=0.325;entryDx=0;entryDy=0;entryPerimeter=0;" edge="1" parent="1" source="7p3zjBgwq1A4IZcTtpgZ-31" target="7p3zjBgwq1A4IZcTtpgZ-27">
          <mxGeometry width="50" height="50" relative="1" as="geometry">
            <mxPoint x="1308.8500000000006" y="303.4500000000003" as="sourcePoint" />
            <mxPoint x="790.0000000000002" y="448.125" as="targetPoint" />
          </mxGeometry>
        </mxCell>
        <mxCell id="wtMiBTPdfHzcAF2MeM23-41" value="&lt;font style=&quot;font-size: 14px;&quot;&gt;داده های علائم بیمار/ گزارش مراقبت در منزل&lt;/font&gt;" style="text;html=1;align=center;verticalAlign=middle;whiteSpace=wrap;rounded=0;rotation=-15;" vertex="1" parent="1">
          <mxGeometry x="892.2" y="367" width="340" height="50" as="geometry" />
        </mxCell>
        <mxCell id="wtMiBTPdfHzcAF2MeM23-42" value="&lt;font style=&quot;font-size: 14px;&quot;&gt;گزارش به پزشک یا سیستم&lt;/font&gt;" style="text;html=1;align=center;verticalAlign=middle;whiteSpace=wrap;rounded=0;rotation=-15;" vertex="1" parent="1">
          <mxGeometry x="939.2" y="304" width="200" height="70" as="geometry" />
        </mxCell>
        <mxCell id="lzQvrWfAJd1n3upZWq1D-1" value="" style="endArrow=classic;html=1;rounded=0;entryX=-0.013;entryY=0.394;entryDx=0;entryDy=0;entryPerimeter=0;exitX=1.003;exitY=0.573;exitDx=0;exitDy=0;exitPerimeter=0;" edge="1" parent="1" source="7p3zjBgwq1A4IZcTtpgZ-27" target="7p3zjBgwq1A4IZcTtpgZ-32">
          <mxGeometry width="50" height="50" relative="1" as="geometry">
            <mxPoint x="810" y="550" as="sourcePoint" />
            <mxPoint x="1280.8400000000001" y="745" as="targetPoint" />
          </mxGeometry>
        </mxCell>
        <mxCell id="7p3zjBgwq1A4IZcTtpgZ-1" value="" style="endArrow=classic;html=1;rounded=0;entryX=0.99;entryY=0.64;entryDx=0;entryDy=0;entryPerimeter=0;exitX=0;exitY=0.75;exitDx=0;exitDy=0;" edge="1" parent="1" source="7p3zjBgwq1A4IZcTtpgZ-32" target="7p3zjBgwq1A4IZcTtpgZ-27">
          <mxGeometry width="50" height="50" relative="1" as="geometry">
            <mxPoint x="1270.960000000001" y="754" as="sourcePoint" />
            <mxPoint x="859.9999999999999" y="492" as="targetPoint" />
          </mxGeometry>
        </mxCell>
        <mxCell id="7p3zjBgwq1A4IZcTtpgZ-2" value="&lt;font style=&quot;font-size: 14px;&quot;&gt;نسخه دارویی از سیستم&lt;/font&gt;" style="text;html=1;align=center;verticalAlign=middle;whiteSpace=wrap;rounded=0;rotation=15;" vertex="1" parent="1">
          <mxGeometry x="949.9999999999999" y="660" width="160" height="30" as="geometry" />
        </mxCell>
        <mxCell id="7p3zjBgwq1A4IZcTtpgZ-3" value="&lt;font style=&quot;font-size: 14px;&quot;&gt;تایید تامین دارو / وضعیت ارسال&lt;/font&gt;" style="text;html=1;align=center;verticalAlign=middle;whiteSpace=wrap;rounded=0;rotation=15;" vertex="1" parent="1">
          <mxGeometry x="931" y="590" width="255" height="19" as="geometry" />
        </mxCell>
        <mxCell id="7p3zjBgwq1A4IZcTtpgZ-4" value="" style="endArrow=classic;html=1;rounded=0;entryX=0.332;entryY=-0.029;entryDx=0;entryDy=0;exitX=0.882;exitY=0.841;exitDx=0;exitDy=0;exitPerimeter=0;entryPerimeter=0;" edge="1" parent="1" source="7p3zjBgwq1A4IZcTtpgZ-27" target="7p3zjBgwq1A4IZcTtpgZ-33">
          <mxGeometry width="50" height="50" relative="1" as="geometry">
            <mxPoint x="815.4200000000005" y="692.88" as="sourcePoint" />
            <mxPoint x="989.06" y="1181.13" as="targetPoint" />
          </mxGeometry>
        </mxCell>
        <mxCell id="7p3zjBgwq1A4IZcTtpgZ-5" value="" style="endArrow=classic;html=1;rounded=0;entryX=0.824;entryY=0.887;entryDx=0;entryDy=0;entryPerimeter=0;exitX=0.176;exitY=-0.014;exitDx=0;exitDy=0;exitPerimeter=0;" edge="1" parent="1" source="7p3zjBgwq1A4IZcTtpgZ-33" target="7p3zjBgwq1A4IZcTtpgZ-27">
          <mxGeometry width="50" height="50" relative="1" as="geometry">
            <mxPoint x="961.8899999999999" y="1187.5800000000004" as="sourcePoint" />
            <mxPoint x="795.6200000000003" y="690.005" as="targetPoint" />
          </mxGeometry>
        </mxCell>
        <mxCell id="7p3zjBgwq1A4IZcTtpgZ-6" value="&lt;font style=&quot;font-size: 14px;&quot;&gt;درخواست تایید پوشش هزینه ها / اطلاعات بیمار&lt;/font&gt;" style="text;html=1;align=center;verticalAlign=middle;whiteSpace=wrap;rounded=0;rotation=60;" vertex="1" parent="1">
          <mxGeometry x="640" y="920.0000000000001" width="330" height="30" as="geometry" />
        </mxCell>
        <mxCell id="7p3zjBgwq1A4IZcTtpgZ-7" value="&lt;font style=&quot;font-size: 14px;&quot;&gt;&amp;nbsp;میزان سهم پرداخت بیمه / تایید یا رد پوشش بیمه&lt;/font&gt;" style="text;html=1;align=center;verticalAlign=middle;whiteSpace=wrap;rounded=0;rotation=60;" vertex="1" parent="1">
          <mxGeometry x="759.9999999999999" y="887.2" width="300.17" height="30" as="geometry" />
        </mxCell>
        <mxCell id="7p3zjBgwq1A4IZcTtpgZ-8" value="" style="endArrow=classic;html=1;rounded=0;exitX=0.432;exitY=0.998;exitDx=0;exitDy=0;entryX=0.662;entryY=0.025;entryDx=0;entryDy=0;exitPerimeter=0;entryPerimeter=0;" edge="1" parent="1" source="7p3zjBgwq1A4IZcTtpgZ-27" target="7p3zjBgwq1A4IZcTtpgZ-34">
          <mxGeometry width="50" height="50" relative="1" as="geometry">
            <mxPoint x="566" y="730" as="sourcePoint" />
            <mxPoint x="478.2853575160716" y="1282.0541449053862" as="targetPoint" />
          </mxGeometry>
        </mxCell>
        <mxCell id="7p3zjBgwq1A4IZcTtpgZ-9" value="" style="endArrow=classic;html=1;rounded=0;exitX=0.5;exitY=0;exitDx=0;exitDy=0;entryX=0.37;entryY=0.991;entryDx=0;entryDy=0;entryPerimeter=0;" edge="1" parent="1" source="7p3zjBgwq1A4IZcTtpgZ-34" target="7p3zjBgwq1A4IZcTtpgZ-27">
          <mxGeometry width="50" height="50" relative="1" as="geometry">
            <mxPoint x="457.3600000000001" y="1273.1999999999998" as="sourcePoint" />
            <mxPoint x="546" y="730" as="targetPoint" />
          </mxGeometry>
        </mxCell>
        <mxCell id="7p3zjBgwq1A4IZcTtpgZ-10" value="" style="endArrow=classic;html=1;rounded=0;entryX=0;entryY=1;entryDx=0;entryDy=0;exitX=1;exitY=0.624;exitDx=0;exitDy=0;exitPerimeter=0;" edge="1" parent="1" source="7p3zjBgwq1A4IZcTtpgZ-36" target="7p3zjBgwq1A4IZcTtpgZ-27">
          <mxGeometry width="50" height="50" relative="1" as="geometry">
            <mxPoint x="22.130927368181915" y="1001.4417536666309" as="sourcePoint" />
            <mxPoint x="413.0000000000001" y="672.88" as="targetPoint" />
          </mxGeometry>
        </mxCell>
        <mxCell id="7p3zjBgwq1A4IZcTtpgZ-11" value="" style="endArrow=classic;html=1;rounded=0;entryX=1;entryY=0.25;entryDx=0;entryDy=0;" edge="1" parent="1" source="7p3zjBgwq1A4IZcTtpgZ-27" target="7p3zjBgwq1A4IZcTtpgZ-36">
          <mxGeometry width="50" height="50" relative="1" as="geometry">
            <mxPoint x="381.76000000000033" y="674.255" as="sourcePoint" />
            <mxPoint x="7.850000000000023" y="989.9799999999999" as="targetPoint" />
          </mxGeometry>
        </mxCell>
        <mxCell id="7p3zjBgwq1A4IZcTtpgZ-12" value="" style="endArrow=classic;html=1;rounded=0;exitX=0.998;exitY=0.64;exitDx=0;exitDy=0;entryX=0.013;entryY=0.548;entryDx=0;entryDy=0;entryPerimeter=0;exitPerimeter=0;" edge="1" parent="1" source="7p3zjBgwq1A4IZcTtpgZ-38" target="7p3zjBgwq1A4IZcTtpgZ-27">
          <mxGeometry width="50" height="50" relative="1" as="geometry">
            <mxPoint x="-94.00000000000045" y="460" as="sourcePoint" />
            <mxPoint x="361.5999999999999" y="485.25" as="targetPoint" />
          </mxGeometry>
        </mxCell>
        <mxCell id="7p3zjBgwq1A4IZcTtpgZ-13" value="" style="endArrow=classic;html=1;rounded=0;entryX=0.998;entryY=0.363;entryDx=0;entryDy=0;entryPerimeter=0;exitX=-0.007;exitY=0.468;exitDx=0;exitDy=0;exitPerimeter=0;" edge="1" parent="1" source="7p3zjBgwq1A4IZcTtpgZ-27" target="7p3zjBgwq1A4IZcTtpgZ-38">
          <mxGeometry width="50" height="50" relative="1" as="geometry">
            <mxPoint x="366.00000000000045" y="473.75" as="sourcePoint" />
            <mxPoint x="-93.99999999999955" y="446.6500000000001" as="targetPoint" />
          </mxGeometry>
        </mxCell>
        <mxCell id="7p3zjBgwq1A4IZcTtpgZ-14" value="&lt;font style=&quot;font-size: 14px;&quot;&gt;گزارشات/ وضعیت سیستم&lt;/font&gt;" style="text;html=1;align=center;verticalAlign=middle;whiteSpace=wrap;rounded=0;rotation=0;" vertex="1" parent="1">
          <mxGeometry x="-50" y="440" width="288.97" height="30" as="geometry" />
        </mxCell>
        <mxCell id="7p3zjBgwq1A4IZcTtpgZ-16" value="&lt;font style=&quot;font-size: 14px;&quot;&gt;مدیریت کاربران / نقش ها / داده ها&lt;/font&gt;" style="text;html=1;align=center;verticalAlign=middle;whiteSpace=wrap;rounded=0;rotation=0;" vertex="1" parent="1">
          <mxGeometry x="-1.0300000000000002" y="530" width="220" height="30" as="geometry" />
        </mxCell>
        <mxCell id="7p3zjBgwq1A4IZcTtpgZ-17" value="&lt;font style=&quot;font-size: 14px;&quot;&gt;وضعیت تحویل / کد رهگیری&lt;/font&gt;" style="text;html=1;align=center;verticalAlign=middle;whiteSpace=wrap;rounded=0;rotation=-40;" vertex="1" parent="1">
          <mxGeometry x="20" y="800.0000000000001" width="230" height="57" as="geometry" />
        </mxCell>
        <mxCell id="7p3zjBgwq1A4IZcTtpgZ-18" value="&lt;font style=&quot;font-size: 14px;&quot;&gt;اطلاعات سفارش و آدرس تحویل&lt;/font&gt;" style="text;html=1;align=center;verticalAlign=middle;whiteSpace=wrap;rounded=0;rotation=-40;" vertex="1" parent="1">
          <mxGeometry x="-20" y="877.1999999999999" width="426.88" height="50" as="geometry" />
        </mxCell>
        <mxCell id="7p3zjBgwq1A4IZcTtpgZ-19" value="&lt;font style=&quot;font-size: 14px;&quot;&gt;درخواست&amp;nbsp; پرداخت انلاین&lt;/font&gt;" style="text;html=1;align=center;verticalAlign=middle;whiteSpace=wrap;rounded=0;rotation=-75;" vertex="1" parent="1">
          <mxGeometry x="366" y="1040" width="200" height="50" as="geometry" />
        </mxCell>
        <mxCell id="7p3zjBgwq1A4IZcTtpgZ-20" value="&lt;font style=&quot;font-size: 14px;&quot;&gt;تایید یا خطای پرداخت&lt;/font&gt;" style="text;html=1;align=center;verticalAlign=middle;whiteSpace=wrap;rounded=0;rotation=-75;" vertex="1" parent="1">
          <mxGeometry x="452.94000000000005" y="1050" width="159" height="30" as="geometry" />
        </mxCell>
        <mxCell id="7p3zjBgwq1A4IZcTtpgZ-27" value="" style="ellipse;whiteSpace=wrap;html=1;aspect=fixed;" vertex="1" parent="1">
          <mxGeometry x="400" y="320" width="400" height="400" as="geometry" />
        </mxCell>
        <mxCell id="7p3zjBgwq1A4IZcTtpgZ-23" value="&lt;font style=&quot;font-size: 24px; color: rgb(51, 153, 255); background-color: rgb(255, 255, 255);&quot;&gt;Doctor&lt;/font&gt;" style="rounded=0;whiteSpace=wrap;html=1;" vertex="1" parent="1">
          <mxGeometry x="950" y="-250" width="217" height="100" as="geometry" />
        </mxCell>
        <mxCell id="wtMiBTPdfHzcAF2MeM23-3" value="&lt;b&gt;&lt;font style=&quot;font-size: 24px;&quot;&gt;Telemedicine&lt;/font&gt;&lt;/b&gt;" style="text;strokeColor=none;align=center;fillColor=none;html=1;verticalAlign=middle;whiteSpace=wrap;rounded=0;" vertex="1" parent="1">
          <mxGeometry x="501" y="484" width="210" height="80" as="geometry" />
        </mxCell>
        <mxCell id="7p3zjBgwq1A4IZcTtpgZ-29" value="&lt;font style=&quot;font-size: 24px; color: rgb(51, 153, 255); background-color: rgb(255, 255, 255);&quot;&gt;Hospital&lt;/font&gt;" style="rounded=0;whiteSpace=wrap;html=1;" vertex="1" parent="1">
          <mxGeometry x="507.94000000000005" y="-250" width="217" height="100" as="geometry" />
        </mxCell>
        <mxCell id="7p3zjBgwq1A4IZcTtpgZ-30" value="&lt;font color=&quot;#3399ff&quot;&gt;&lt;span style=&quot;font-size: 24px; background-color: rgb(255, 255, 255);&quot;&gt;Patient&lt;/span&gt;&lt;/font&gt;" style="rounded=0;whiteSpace=wrap;html=1;" vertex="1" parent="1">
          <mxGeometry x="-120" y="-150" width="217" height="100" as="geometry" />
        </mxCell>
        <mxCell id="7p3zjBgwq1A4IZcTtpgZ-31" value="&lt;font style=&quot;font-size: 24px; color: rgb(51, 153, 255); background-color: rgb(255, 255, 255);&quot;&gt;Nurse&lt;/font&gt;" style="rounded=0;whiteSpace=wrap;html=1;" vertex="1" parent="1">
          <mxGeometry x="1322.2" y="220" width="217" height="100" as="geometry" />
        </mxCell>
        <mxCell id="7p3zjBgwq1A4IZcTtpgZ-32" value="&lt;font style=&quot;font-size: 24px; color: rgb(51, 153, 255); background-color: rgb(255, 255, 255);&quot;&gt;Pharmecy&lt;/font&gt;" style="rounded=0;whiteSpace=wrap;html=1;" vertex="1" parent="1">
          <mxGeometry x="1307.92" y="660" width="217" height="100" as="geometry" />
        </mxCell>
        <mxCell id="7p3zjBgwq1A4IZcTtpgZ-33" value="&lt;font color=&quot;#3399ff&quot;&gt;&lt;span style=&quot;font-size: 24px; background-color: rgb(255, 255, 255);&quot;&gt;Insurance&lt;/span&gt;&lt;/font&gt;" style="rounded=0;whiteSpace=wrap;html=1;" vertex="1" parent="1">
          <mxGeometry x="922.2" y="1190" width="217" height="100" as="geometry" />
        </mxCell>
        <mxCell id="7p3zjBgwq1A4IZcTtpgZ-34" value="&lt;font style=&quot;font-size: 24px; color: rgb(51, 153, 255); background-color: rgb(255, 255, 255);&quot;&gt;Bank&lt;/font&gt;" style="rounded=0;whiteSpace=wrap;html=1;" vertex="1" parent="1">
          <mxGeometry x="346" y="1220" width="217" height="100" as="geometry" />
        </mxCell>
        <mxCell id="7p3zjBgwq1A4IZcTtpgZ-36" value="&lt;span style=&quot;color: rgb(0, 105, 209); font-family: Verdana; float: none; background-color: rgb(255, 255, 255); display: inline !important;&quot;&gt;&lt;font style=&quot;font-size: 24px;&quot;&gt;Medicine Delivery&lt;/font&gt;&lt;/span&gt;&lt;div style=&quot;color: rgb(0, 105, 209); font-family: Verdana;&quot;&gt;&lt;span style=&quot;background-color: rgb(255, 255, 255);&quot;&gt;&lt;font style=&quot;font-size: 24px;&quot;&gt;Service&lt;/font&gt;&lt;/span&gt;&lt;/div&gt;" style="rounded=0;whiteSpace=wrap;html=1;" vertex="1" parent="1">
          <mxGeometry x="-261.03" y="940" width="260" height="110" as="geometry" />
        </mxCell>
        <mxCell id="7p3zjBgwq1A4IZcTtpgZ-38" value="&lt;font style=&quot;font-size: 24px;&quot; face=&quot;Verdana&quot; color=&quot;#0069d1&quot;&gt;&lt;span style=&quot;background-color: rgb(255, 255, 255);&quot;&gt;Admin&lt;/span&gt;&lt;/font&gt;" style="rounded=0;whiteSpace=wrap;html=1;" vertex="1" parent="1">
          <mxGeometry x="-370" y="440" width="217" height="100" as="geometry" />
        </mxCell>
      </root>
    </mxGraphModel>
  </diagram>
</mxfile>
